<svg width="24" height="33" viewBox="0 0 24 33" fill="none" xmlns="http://www.w3.org/2000/svg">
<g clip-path="url(#clip0_30_48)">
<path d="M10.717 0.108617C9.37335 0.361761 7.73765 0.829104 7.17944 1.13418C6.38106 1.56257 6.10844 1.79624 5.40094 2.64655C4.90763 3.24371 4.75185 3.55527 4.74536 3.9642C4.74536 4.23032 4.77132 4.30821 4.92711 4.43803C5.03745 4.53539 5.19323 4.59381 5.32305 4.59381C5.71899 4.59381 6.7121 4.19138 7.23786 3.8214C7.54293 3.60071 9.18512 2.92566 9.77579 2.76987C10.6261 2.54919 12.6253 2.41937 13.6703 2.51024C14.3843 2.57515 14.4492 2.59462 15.1827 2.95162C15.5981 3.15284 15.994 3.37353 16.0525 3.43843C16.1109 3.50334 16.1823 3.55527 16.2212 3.55527C16.2796 3.55527 16.734 3.86034 17.8894 4.68468C18.1944 4.89888 18.6878 5.28184 18.9928 5.54148C19.7458 6.1646 19.8237 6.21004 20.265 6.24898C20.7908 6.30091 20.9466 6.21004 21.0569 5.79462C21.2776 4.91835 20.7648 3.86034 19.5965 2.79584C18.7656 2.03641 18.6618 1.95852 18.0646 1.6145C16.9742 0.984885 15.5592 0.433161 14.3519 0.173526C13.4237 -0.027691 11.6257 -0.0601454 10.717 0.108617ZM13.8975 0.705778C14.1701 0.738232 14.5985 0.842086 14.8581 0.932958C15.1178 1.02383 15.4423 1.12119 15.5786 1.16014C15.9291 1.25101 17.2273 1.87413 17.7531 2.20517C18.9474 2.95162 19.7523 3.72403 20.1547 4.48347C20.4468 5.04168 20.5182 5.53499 20.317 5.61288C20.2196 5.65182 19.7003 5.32728 19.3823 5.0287C19.1746 4.84046 18.0841 4.01612 17.4026 3.54229C16.6366 3.01653 15.8707 2.54919 15.3385 2.29604C14.4297 1.86764 14.4168 1.86764 12.5149 1.86764C10.8922 1.86764 10.7364 1.88063 10.1652 2.02342C8.91899 2.34148 7.55591 2.86075 6.93279 3.25669C6.22528 3.69807 5.47234 4.00314 5.39445 3.87332C5.31007 3.74351 5.68654 3.21775 6.30317 2.60111C6.86788 2.02992 7.04313 1.9001 7.51047 1.67941C8.39323 1.26399 9.62001 0.900504 10.665 0.738232C11.3596 0.627887 13.2224 0.608414 13.8975 0.705778Z" fill="black"/>
<path d="M6.30325 7.81336C5.23225 7.96914 4.64158 8.19632 3.9211 8.74155C2.55152 9.7736 1.79209 12.0519 2.14909 14.0446C2.2789 14.7716 2.54503 15.557 2.80467 15.9659C3.09675 16.4138 3.86268 17.1407 4.343 17.4069C4.9142 17.7249 5.7645 18.017 6.46552 18.1338C7.34828 18.2831 8.6789 18.1338 9.17221 17.8288C9.29554 17.7509 9.40588 17.7054 9.42536 17.7249C9.44483 17.7379 9.39939 17.9132 9.3215 18.1014C9.06836 18.77 8.93854 19.5229 8.8931 20.6588C8.84118 21.9245 8.89959 22.3269 9.18519 22.7164C9.48377 23.1188 9.75639 23.2876 10.0939 23.2876C10.8209 23.2876 11.7361 22.275 12.6254 20.4965C12.8396 20.0681 13.0343 19.6203 13.0538 19.4969C13.1381 19.075 12.8525 18.8673 12.5215 19.101C12.4371 19.1594 12.2684 19.4839 12.1126 19.8929C11.7101 20.9184 11.4116 21.3858 10.6391 22.1712C10.2237 22.5996 10.1134 22.632 9.84726 22.4178C9.54868 22.1841 9.44483 21.0937 9.6071 20.0097C9.84726 18.4519 10.1329 17.686 10.8079 16.7708C11.0935 16.3943 11.4051 15.9529 11.5024 15.7906C11.6063 15.6219 11.7556 15.4142 11.827 15.3168L11.9698 15.148L12.0152 15.4336C12.0801 15.8101 12.4047 16.4657 12.7876 16.972C13.5536 17.9846 14.5596 18.4779 16.3641 18.7115C17.6428 18.8738 18.3438 18.8284 19.3174 18.5103C20.0769 18.2637 21.1349 17.4004 21.6931 16.5695C22.2254 15.7777 22.4785 14.5184 22.4136 12.9866C22.3746 12.1687 22.3487 12.0065 22.1734 11.5586C21.5438 9.9164 19.9471 8.51437 18.4606 8.29368C17.8051 8.20281 16.5848 8.20281 16.046 8.30017C14.2156 8.62472 13.2355 9.37766 12.3722 11.0977C12.3268 11.2016 12.2748 11.2665 12.2554 11.247C12.2424 11.234 12.158 11.0069 12.0671 10.7537C11.6647 9.55291 11.1649 8.94277 10.1329 8.41052C9.12028 7.89125 8.86065 7.82634 7.60142 7.80687C6.99777 7.79389 6.41359 7.80038 6.30325 7.81336ZM8.86714 8.58577C9.38641 8.74155 9.9641 9.00768 10.2627 9.21539C10.8598 9.63729 11.4635 10.5915 11.5998 11.3249C11.7166 11.9416 11.6387 13.9472 11.483 14.434C11.3207 14.9403 10.7105 15.8491 10.1848 16.3748C9.1787 17.3874 7.43266 17.7963 5.98519 17.3614C4.88824 17.0304 4.20669 16.6215 3.69391 15.9789C3.53813 15.7906 3.41481 15.6154 3.41481 15.5959C3.41481 15.57 3.35639 15.4661 3.28499 15.3687C2.86957 14.7846 2.64239 13.4474 2.76572 12.2791C2.95396 10.4681 4.18722 9.01417 5.95274 8.52086C6.44604 8.38455 8.36085 8.4235 8.86714 8.58577ZM18.4931 9.04662C19.1811 9.2024 19.8497 9.57238 20.4274 10.1241C21.1868 10.8511 21.388 11.2016 21.6542 12.2142C21.8294 12.9087 21.8294 13.8629 21.6477 14.7781C21.4529 15.7777 21.2323 16.1931 20.5247 16.9006C19.7848 17.6405 19.2785 17.9132 18.4347 18.03C17.7207 18.1338 16.1369 18.0754 15.5852 17.9326C15.0594 17.7898 13.956 17.2511 13.6314 16.9655C13.3069 16.6864 12.911 15.9529 12.6578 15.1416C12.489 14.6093 12.4696 14.473 12.4696 13.6162C12.4696 12.8633 12.4955 12.6036 12.5929 12.318C12.7097 11.9805 13.0797 11.1562 13.1511 11.0848C13.1706 11.0653 13.2939 10.8835 13.4302 10.6758C13.7353 10.202 14.2546 9.67624 14.67 9.41011C15.2282 9.05311 15.6826 8.96224 17.0651 8.94926C17.7402 8.94277 18.1621 8.97522 18.4931 9.04662Z" fill="black"/>
<path d="M5.77742 11.9999C5.46586 12.1492 5.32955 12.3699 5.38797 12.6036C5.45937 12.9022 5.65409 13.032 5.99811 13.032C6.52387 13.032 6.77052 12.675 6.58229 12.1622C6.49791 11.9285 6.45896 11.8961 6.26423 11.8831C6.14091 11.8766 5.92671 11.9285 5.77742 11.9999Z" fill="black"/>
<path d="M17.1494 12.8308C16.7859 12.9606 16.6172 13.1942 16.6821 13.5058C16.7405 13.7979 16.8898 13.9277 17.2792 14.0121C17.6103 14.09 17.6427 14.0835 17.792 13.9407C17.9218 13.8174 17.9543 13.7265 17.9543 13.4798C17.9543 13.2202 17.9154 13.1228 17.7531 12.9346C17.6427 12.8113 17.5324 12.7074 17.5064 12.7139C17.487 12.7139 17.3247 12.7658 17.1494 12.8308Z" fill="black"/>
<path d="M3.07075 17.2965C2.98636 17.3809 3.02531 17.9067 3.13566 18.1144C3.49265 18.8154 4.25209 19.5554 4.85574 19.8085L5.26466 19.9773L4.90766 19.9253C3.96649 19.802 3.04478 20.0162 2.08413 20.5809C1.58434 20.873 0.837886 21.6 0.57176 22.0478C-0.012418 23.0474 -0.187672 25.2349 0.227744 26.4032C0.811923 28.0649 1.33119 28.9476 2.27237 29.8758C3.16162 30.7586 4.20016 31.57 4.88819 31.9334C5.97866 32.5111 7.30929 32.959 7.65979 32.8681C8.0103 32.7837 8.14012 32.4397 7.88048 32.3034C7.80259 32.258 7.49103 32.1736 7.17947 32.1087C5.37501 31.7128 3.22653 30.1744 1.90888 28.344C1.45452 27.7079 1.27277 27.3249 0.935249 26.3123C0.675614 25.5529 0.669124 25.4945 0.662633 24.6507C0.656142 23.3006 0.811923 22.7813 1.47399 21.957C1.84397 21.4961 1.90888 21.4507 2.62288 21.1067C3.52511 20.6653 3.88211 20.5614 4.48576 20.5614C5.06344 20.5614 5.36852 20.6458 5.77744 20.9249C6.13444 21.1651 6.24478 21.1846 6.42004 21.0547C6.67967 20.8535 6.45898 20.5355 5.84884 20.2369C5.53079 20.0811 5.48535 19.9902 5.77744 20.1071C6.04357 20.2044 7.12754 20.185 7.63383 20.0681C8.17906 19.9448 8.41273 19.7825 8.41273 19.5164C8.41273 19.3347 8.39975 19.3282 8.10117 19.3282C7.92592 19.3282 7.52348 19.3801 7.20543 19.4515C6.75107 19.5424 6.53687 19.5554 6.20584 19.5164C5.04397 19.3541 4.37541 18.9128 3.77176 17.9002C3.43424 17.3355 3.21355 17.1472 3.07075 17.2965Z" fill="black"/>
<path d="M20.674 19.2957C19.986 19.9448 19.7653 20.0746 19.1032 20.2304C18.2205 20.4446 16.812 20.3667 15.9292 20.0487C15.3775 19.8474 15.1892 19.8669 15.1049 20.1201C14.9621 20.5225 15.1957 20.6653 16.3836 20.9184C17.6298 21.1781 18.6099 21.1716 19.5057 20.8925C20.713 20.516 21.8619 19.445 21.5957 18.9452C21.4529 18.6921 21.2387 18.77 20.674 19.2957Z" fill="black"/>
<path d="M3.73925 21.8077C3.35629 21.8921 3.16156 22.0349 2.53195 22.6645C1.94777 23.2551 1.77901 23.5862 1.65568 24.417C1.59726 24.7935 1.60375 24.9947 1.68164 25.4101C1.80497 26.0527 2.11004 26.7992 2.42809 27.234C2.55791 27.4158 2.78509 27.7338 2.92789 27.9351C3.23296 28.3635 3.83661 28.9931 4.51166 29.5837C5.23864 30.2134 5.10233 30.129 6.62769 30.9468C7.34169 31.3363 9.74331 31.9983 11.2362 32.219C12.1449 32.3553 14.936 32.4138 15.981 32.3164C16.8573 32.232 18.2658 31.9399 18.863 31.7192C19.4147 31.518 20.1482 31.0896 20.6415 30.6937C21.2127 30.2328 21.9137 29.3241 22.2837 28.5777L22.5693 27.9935L22.5498 27.0523C22.5238 26.0203 22.4395 25.7282 21.9721 24.9233C21.7384 24.5338 20.9206 23.6835 20.6285 23.5278C19.1551 22.7359 18.9214 22.6775 17.4155 22.7164C15.8382 22.7618 14.9685 22.9825 13.6313 23.6835C12.3786 24.3456 11.2881 24.4884 10.0094 24.1639C9.10071 23.9302 8.15304 23.5083 7.64027 23.0994C7.17941 22.7294 6.16684 22.1582 5.58266 21.931C5.14128 21.7557 4.21308 21.6908 3.73925 21.8077ZM5.43337 22.5736C5.93966 22.8332 5.99807 22.9176 5.77738 23.0864C5.56968 23.2486 5.38144 23.3071 5.13479 23.2746C4.92708 23.2551 4.75183 22.9695 4.67394 22.5476L4.6285 22.301L4.84919 22.3464C4.97252 22.3724 5.23215 22.4762 5.43337 22.5736ZM7.08854 23.5667C7.30274 23.7225 7.56887 23.9042 7.6857 23.9691C7.79605 24.0405 7.89341 24.1184 7.89341 24.1444C7.89341 24.2158 7.49747 24.5014 7.28976 24.5793C7.08854 24.6572 6.764 24.5598 6.60822 24.3781C6.50436 24.2547 6.43296 23.6835 6.49138 23.4564C6.5498 23.2227 6.65365 23.2422 7.08854 23.5667ZM17.7401 23.3979C17.753 23.4369 17.6622 23.5018 17.5388 23.5472C17.3571 23.6056 17.2727 23.5992 17.065 23.5083L16.8184 23.3979L17.0131 23.3525C17.2922 23.2811 17.7141 23.3071 17.7401 23.3979ZM15.8123 23.677C15.8123 24.0535 15.5072 24.3261 15.0918 24.3261C14.8581 24.3261 14.4752 24.1444 14.553 24.0665C14.6309 23.9886 15.6305 23.5537 15.7344 23.5472C15.7733 23.5472 15.8123 23.6056 15.8123 23.677ZM9.26298 24.6572C9.61998 24.8065 9.92505 24.9557 9.94452 24.9882C9.98996 25.0596 9.73682 25.4685 9.56156 25.5919C9.36035 25.7347 8.893 25.7152 8.74371 25.5659C8.67231 25.4945 8.58793 25.2738 8.5425 25.0596C8.50355 24.8519 8.45162 24.6182 8.43215 24.5338C8.38672 24.3261 8.51004 24.3456 9.26298 24.6572ZM13.8001 24.4884C13.8001 24.5079 13.7417 24.6312 13.6768 24.7675C13.508 25.0921 13.2484 25.3647 13.0991 25.3647C12.9498 25.3647 12.6317 25.131 12.6317 25.0207C12.6317 24.9752 12.8719 24.8324 13.1705 24.7026C13.7352 24.456 13.8001 24.4365 13.8001 24.4884ZM11.775 25.1375C11.8658 25.2219 11.5218 25.6957 11.3206 25.7736C11.0415 25.8775 10.5547 25.475 10.5547 25.1375C10.5547 25.0336 10.6131 25.0336 11.1583 25.0726C11.4829 25.0985 11.7685 25.131 11.775 25.1375ZM5.54371 29.415C5.67353 29.5383 5.7644 29.6616 5.73844 29.6876C5.68651 29.733 5.26461 29.4085 5.20619 29.2722C5.14128 29.1294 5.29706 29.1943 5.54371 29.415ZM7.4001 29.9537C7.56237 30.129 7.67921 30.4665 7.60781 30.5444C7.54939 30.6028 6.98469 30.3107 6.94574 30.2004C6.90031 30.0965 7.07556 29.7785 7.17941 29.7785C7.21187 29.7785 7.30923 29.8564 7.4001 29.9537ZM9.23053 30.2069C9.45122 30.3107 9.77576 30.8365 9.77576 31.0961C9.77576 31.2129 9.74331 31.2194 9.44473 31.1805C9.26298 31.1545 8.99686 31.0896 8.86055 31.0312C8.62039 30.9403 8.60741 30.9144 8.60741 30.6612C8.60741 30.3302 8.71775 30.1679 8.98388 30.1095C8.99686 30.103 9.1072 30.1484 9.23053 30.2069ZM11.5023 30.6093C11.6906 30.7586 11.9177 31.2194 11.9177 31.4596C11.9177 31.6413 11.9113 31.6478 11.6451 31.6219C10.6585 31.518 10.5871 31.4726 10.652 31.0507C10.7234 30.6353 10.8403 30.4925 11.1259 30.4925C11.2557 30.4925 11.4309 30.5444 11.5023 30.6093ZM18.0322 30.6547C18.3177 30.8495 18.4605 31.0637 18.3307 31.1091C17.9283 31.2584 17.4674 31.3882 17.4285 31.3622C17.3376 31.3038 17.2922 30.7716 17.3636 30.6288C17.4674 30.4405 17.7336 30.4535 18.0322 30.6547ZM15.9681 30.7846C16.1498 30.9079 16.5587 31.518 16.4938 31.5829C16.4419 31.6413 15.2281 31.7777 15.1177 31.7387C15.0658 31.7192 15.0464 31.6543 15.0788 31.5375C15.1437 31.2584 15.3579 30.791 15.4423 30.7391C15.5656 30.6612 15.8058 30.6807 15.9681 30.7846ZM13.7612 30.9338C13.8845 31.0507 14.0727 31.3947 14.1506 31.6478C14.2025 31.7971 14.196 31.7971 13.6898 31.7517C13.4107 31.7322 13.1056 31.7127 13.0017 31.7063C12.9044 31.6998 12.82 31.6608 12.82 31.6284C12.8135 31.4077 12.9238 31.1221 13.0861 30.9468C13.2484 30.7716 13.3133 30.7456 13.4626 30.7846C13.5599 30.804 13.6898 30.8754 13.7612 30.9338Z" fill="black"/>
<path d="M20.4339 21.8985C20.1353 22.1062 20.2651 22.2944 21.0959 22.8202C21.7645 23.2486 22.1604 23.638 22.6018 24.3001C23.2444 25.2608 23.4651 26.3058 23.2509 27.3768C23.1146 28.0648 22.9199 28.6685 22.6927 29.1293C22.4266 29.6551 21.7385 30.5898 21.3815 30.9143C21.044 31.2194 19.629 31.9464 19.2331 32.0178C18.7333 32.1151 18.6878 32.5825 19.1617 32.6733C19.4018 32.7188 19.642 32.6279 20.9596 32.0178C22.089 31.492 23.2314 30.0315 23.6533 28.5646C23.9454 27.5715 24.0038 27.1171 23.9779 26.1435C23.9519 25.2802 23.9389 25.1699 23.7637 24.7804C23.5235 24.2352 23.2314 23.8133 22.6083 23.1317C22.2059 22.6904 21.9657 22.4956 21.44 22.1841C21.0765 21.9699 20.7324 21.7946 20.6805 21.7946C20.6221 21.7946 20.5118 21.8401 20.4339 21.8985Z" fill="black"/>
</g>
<defs>
<clipPath id="clip0_30_48">
<rect width="24" height="32.86" fill="white"/>
</clipPath>
</defs>
</svg>
